# xmcd
# Copyright (C) 1995-1998 Ti Kan
#
# Track frame offsets:
#       150
#       19994
#       41731
#
# Disc length: 762 seconds
#
# Revision: 0
# Processed by: cddbd v1.5.2PL0 Copyright (c) Steve Scherf et al.
# Submitted via: CD-Import v1.0
#
DISCID=2002f803
DTITLE=Gala Unpur - Spielt Golbert O'Sullivan
DYEAR=1900
DGENRE=
TTITLE0=Matrimony
TTITLE1=Bye Bye
TTITLE2=January Git
EXTD=
EXTT0=
EXTT1=
EXTT2=
PLAYORDER=
